<mxfile host="app.diagrams.net" agent="Mozilla/5.0 (Macintosh; Intel Mac OS X 10_15_7) AppleWebKit/537.36 (KHTML, like Gecko) Chrome/131.0.0.0 Safari/537.36" version="25.0.1">
  <diagram name="Sayfa -1" id="GVQYx2sRCvoD61wXHu_J">
    <mxGraphModel dx="1761" dy="1616" grid="1" gridSize="10" guides="1" tooltips="1" connect="1" arrows="1" fold="1" page="1" pageScale="1" pageWidth="827" pageHeight="1169" math="0" shadow="0">
      <root>
        <mxCell id="0" />
        <mxCell id="1" parent="0" />
        <mxCell id="AqNQG8bEep74ebUHCkk8-26" style="edgeStyle=orthogonalEdgeStyle;rounded=0;orthogonalLoop=1;jettySize=auto;html=1;" parent="1" source="AqNQG8bEep74ebUHCkk8-3" edge="1">
          <mxGeometry relative="1" as="geometry">
            <mxPoint x="-675" y="-730" as="targetPoint" />
          </mxGeometry>
        </mxCell>
        <mxCell id="AqNQG8bEep74ebUHCkk8-3" value=":Player" style="rounded=0;whiteSpace=wrap;html=1;" parent="1" vertex="1">
          <mxGeometry x="-665" y="-740" width="120" height="60" as="geometry" />
        </mxCell>
        <mxCell id="AqNQG8bEep74ebUHCkk8-16" style="edgeStyle=orthogonalEdgeStyle;rounded=0;orthogonalLoop=1;jettySize=auto;html=1;" parent="1" source="AqNQG8bEep74ebUHCkk8-4" target="AqNQG8bEep74ebUHCkk8-3" edge="1">
          <mxGeometry relative="1" as="geometry" />
        </mxCell>
        <mxCell id="AqNQG8bEep74ebUHCkk8-4" value=":ArcherMonster" style="rounded=0;whiteSpace=wrap;html=1;" parent="1" vertex="1">
          <mxGeometry x="-445" y="-860" width="120" height="60" as="geometry" />
        </mxCell>
        <mxCell id="AqNQG8bEep74ebUHCkk8-12" style="edgeStyle=orthogonalEdgeStyle;rounded=0;orthogonalLoop=1;jettySize=auto;html=1;entryX=1;entryY=0.5;entryDx=0;entryDy=0;" parent="1" source="AqNQG8bEep74ebUHCkk8-5" target="AqNQG8bEep74ebUHCkk8-6" edge="1">
          <mxGeometry relative="1" as="geometry">
            <Array as="points">
              <mxPoint x="-205" y="-614" />
            </Array>
          </mxGeometry>
        </mxCell>
        <mxCell id="AqNQG8bEep74ebUHCkk8-13" style="edgeStyle=orthogonalEdgeStyle;rounded=0;orthogonalLoop=1;jettySize=auto;html=1;entryX=1;entryY=0.5;entryDx=0;entryDy=0;" parent="1" source="AqNQG8bEep74ebUHCkk8-5" target="AqNQG8bEep74ebUHCkk8-7" edge="1">
          <mxGeometry relative="1" as="geometry">
            <Array as="points">
              <mxPoint x="-155" y="-480" />
            </Array>
          </mxGeometry>
        </mxCell>
        <mxCell id="AqNQG8bEep74ebUHCkk8-5" value=":GameSystem" style="rounded=0;whiteSpace=wrap;html=1;" parent="1" vertex="1">
          <mxGeometry x="-235" y="-740" width="120" height="60" as="geometry" />
        </mxCell>
        <mxCell id="AqNQG8bEep74ebUHCkk8-6" value=":FighterMonster" style="rounded=0;whiteSpace=wrap;html=1;" parent="1" vertex="1">
          <mxGeometry x="-445" y="-644" width="120" height="60" as="geometry" />
        </mxCell>
        <mxCell id="AqNQG8bEep74ebUHCkk8-18" style="edgeStyle=orthogonalEdgeStyle;rounded=0;orthogonalLoop=1;jettySize=auto;html=1;entryX=0.25;entryY=1;entryDx=0;entryDy=0;" parent="1" source="AqNQG8bEep74ebUHCkk8-7" target="AqNQG8bEep74ebUHCkk8-3" edge="1">
          <mxGeometry relative="1" as="geometry" />
        </mxCell>
        <mxCell id="AqNQG8bEep74ebUHCkk8-7" value=":WizardMonster" style="rounded=0;whiteSpace=wrap;html=1;" parent="1" vertex="1">
          <mxGeometry x="-445" y="-510" width="120" height="60" as="geometry" />
        </mxCell>
        <mxCell id="AqNQG8bEep74ebUHCkk8-8" value="" style="endArrow=classic;html=1;rounded=0;exitX=1;exitY=0.5;exitDx=0;exitDy=0;" parent="1" edge="1">
          <mxGeometry width="50" height="50" relative="1" as="geometry">
            <mxPoint x="-545" y="-720" as="sourcePoint" />
            <mxPoint x="-235" y="-720" as="targetPoint" />
          </mxGeometry>
        </mxCell>
        <mxCell id="AqNQG8bEep74ebUHCkk8-9" value="1: True: move()" style="text;html=1;align=center;verticalAlign=middle;resizable=0;points=[];autosize=1;strokeColor=none;fillColor=none;" parent="1" vertex="1">
          <mxGeometry x="-440" y="-750" width="110" height="30" as="geometry" />
        </mxCell>
        <mxCell id="AqNQG8bEep74ebUHCkk8-10" value="" style="endArrow=classic;html=1;rounded=0;entryX=1;entryY=0.75;entryDx=0;entryDy=0;exitX=0;exitY=0.75;exitDx=0;exitDy=0;" parent="1" source="AqNQG8bEep74ebUHCkk8-5" target="AqNQG8bEep74ebUHCkk8-3" edge="1">
          <mxGeometry width="50" height="50" relative="1" as="geometry">
            <mxPoint x="-55" y="-660" as="sourcePoint" />
            <mxPoint x="-5" y="-710" as="targetPoint" />
          </mxGeometry>
        </mxCell>
        <mxCell id="AqNQG8bEep74ebUHCkk8-11" value="2: spawnRandom()" style="text;html=1;align=center;verticalAlign=middle;resizable=0;points=[];autosize=1;strokeColor=none;fillColor=none;" parent="1" vertex="1">
          <mxGeometry x="-465" y="-702" width="120" height="30" as="geometry" />
        </mxCell>
        <mxCell id="AqNQG8bEep74ebUHCkk8-14" style="edgeStyle=orthogonalEdgeStyle;rounded=0;orthogonalLoop=1;jettySize=auto;html=1;entryX=1.008;entryY=0.4;entryDx=0;entryDy=0;entryPerimeter=0;" parent="1" source="AqNQG8bEep74ebUHCkk8-5" target="AqNQG8bEep74ebUHCkk8-4" edge="1">
          <mxGeometry relative="1" as="geometry">
            <Array as="points">
              <mxPoint x="-155" y="-836" />
            </Array>
          </mxGeometry>
        </mxCell>
        <mxCell id="AqNQG8bEep74ebUHCkk8-17" style="edgeStyle=orthogonalEdgeStyle;rounded=0;orthogonalLoop=1;jettySize=auto;html=1;entryX=0.608;entryY=1.05;entryDx=0;entryDy=0;entryPerimeter=0;" parent="1" source="AqNQG8bEep74ebUHCkk8-6" target="AqNQG8bEep74ebUHCkk8-3" edge="1">
          <mxGeometry relative="1" as="geometry" />
        </mxCell>
        <mxCell id="AqNQG8bEep74ebUHCkk8-19" value="3: spawnArcher()" style="text;html=1;align=center;verticalAlign=middle;resizable=0;points=[];autosize=1;strokeColor=none;fillColor=none;fontSize=16;" parent="1" vertex="1">
          <mxGeometry x="-160" y="-830" width="150" height="30" as="geometry" />
        </mxCell>
        <mxCell id="AqNQG8bEep74ebUHCkk8-20" value="5: spawnWizard()" style="text;html=1;align=center;verticalAlign=middle;resizable=0;points=[];autosize=1;strokeColor=none;fillColor=none;fontSize=16;" parent="1" vertex="1">
          <mxGeometry x="-160" y="-584" width="150" height="30" as="geometry" />
        </mxCell>
        <mxCell id="AqNQG8bEep74ebUHCkk8-21" value="7: spawnFighter()" style="text;html=1;align=center;verticalAlign=middle;resizable=0;points=[];autosize=1;strokeColor=none;fillColor=none;fontSize=16;" parent="1" vertex="1">
          <mxGeometry x="-337" y="-614" width="150" height="30" as="geometry" />
        </mxCell>
        <mxCell id="AqNQG8bEep74ebUHCkk8-22" value="4: attackDistance()" style="text;html=1;align=center;verticalAlign=middle;resizable=0;points=[];autosize=1;strokeColor=none;fillColor=none;fontSize=16;" parent="1" vertex="1">
          <mxGeometry x="-612" y="-869" width="160" height="30" as="geometry" />
        </mxCell>
        <mxCell id="AqNQG8bEep74ebUHCkk8-24" value="6:&amp;nbsp;teleportRune()" style="text;html=1;align=center;verticalAlign=middle;resizable=0;points=[];autosize=1;strokeColor=none;fillColor=none;fontSize=16;" parent="1" vertex="1">
          <mxGeometry x="-597" y="-480" width="140" height="30" as="geometry" />
        </mxCell>
        <mxCell id="AqNQG8bEep74ebUHCkk8-25" value="8: closeCombat()" style="text;html=1;align=center;verticalAlign=middle;resizable=0;points=[];autosize=1;strokeColor=none;fillColor=none;fontSize=16;" parent="1" vertex="1">
          <mxGeometry x="-607" y="-614" width="150" height="30" as="geometry" />
        </mxCell>
        <mxCell id="AqNQG8bEep74ebUHCkk8-27" value="1.2: useProtection()&lt;div&gt;8.2: reportLocation()&lt;/div&gt;" style="text;html=1;align=center;verticalAlign=middle;resizable=0;points=[];autosize=1;strokeColor=none;fillColor=none;" parent="1" vertex="1">
          <mxGeometry x="-810" y="-740" width="130" height="40" as="geometry" />
        </mxCell>
      </root>
    </mxGraphModel>
  </diagram>
</mxfile>
